<svg width="538" height="135" viewBox="0 0 538 135" fill="none" xmlns="http://www.w3.org/2000/svg">
<path d="M39.1186 134.571V10.4413H47.0706V134.571H39.1186ZM56.3803 53.8866C56.1217 50.6541 54.9095 48.1327 52.7437 46.3225C50.6102 44.5122 47.3615 43.6071 42.9976 43.6071C40.2176 43.6071 37.9387 43.9465 36.1608 44.6254C34.4152 45.2719 33.1222 46.1608 32.2818 47.2922C31.4413 48.4236 31.0049 49.7166 30.9726 51.1713C30.9079 52.3673 31.118 53.4502 31.6029 54.42C32.1201 55.3574 32.9283 56.214 34.0273 56.9898C35.1264 57.7333 36.5325 58.4121 38.2458 59.0263C39.959 59.6405 41.9955 60.19 44.3553 60.6749L52.5013 62.4205C57.9966 63.5842 62.6999 65.1197 66.6113 67.0269C70.5227 68.9341 73.7229 71.1807 76.2119 73.7667C78.701 76.3204 80.5274 79.1974 81.6911 82.3976C82.8871 85.5978 83.5013 89.0889 83.5336 92.871C83.5013 99.4007 81.8689 104.928 78.6364 109.454C75.4038 113.979 70.7813 117.422 64.7688 119.782C58.7886 122.142 51.5962 123.322 43.1916 123.322C34.5607 123.322 27.0289 122.045 20.5961 119.491C14.1957 116.937 9.2176 113.01 5.66181 107.708C2.13835 102.375 0.36045 95.554 0.328125 87.2464H25.9298C26.0914 90.285 26.8511 92.8387 28.2088 94.9075C29.5664 96.9763 31.4736 98.5441 33.9304 99.6108C36.4194 100.678 39.3772 101.211 42.8037 101.211C45.6806 101.211 48.0889 100.855 50.0284 100.144C51.9679 99.433 53.4387 98.4471 54.4408 97.1864C55.4429 95.9257 55.9601 94.4873 55.9924 92.871C55.9601 91.3517 55.4591 90.0264 54.4893 88.895C53.5519 87.7313 52.0002 86.6968 49.8344 85.7917C47.6686 84.8543 44.7432 83.9815 41.0581 83.1734L31.1665 81.0399C22.374 79.1327 15.4402 75.9487 10.3652 71.4878C5.3224 66.9945 2.81718 60.8689 2.8495 53.1108C2.81718 46.8073 4.4981 41.2959 7.89226 36.5764C11.3188 31.8245 16.0544 28.1233 22.0993 25.4726C28.1764 22.8219 35.1426 21.4966 42.9976 21.4966C51.0143 21.4966 57.9481 22.8381 63.799 25.5211C69.6499 28.2041 74.1593 31.9861 77.3272 36.8673C80.5274 41.7161 82.1437 47.3892 82.176 53.8866H56.3803Z" fill="url(#paint0_linear_4815_5980)"/>
<path d="M90.9887 12.6172L132.791 13.1506L129.658 89.2889L166.527 90.4223L165.927 125.891L88.5219 126.625L90.9887 12.6172Z" fill="url(#paint1_linear_4815_5980)"/>
<path d="M223.531 85.2887L239.065 84.1553L232.265 67.3541L223.531 85.2887ZM256.533 126.825L249.199 108.957L210.93 111.09L201.996 129.492L171.794 111.224L234.132 0.816406L295.402 112.557L256.533 126.825Z" fill="url(#paint2_linear_4815_5980)"/>
<path d="M448.479 107.557L409.543 123.758L395.409 86.6888L375.674 112.49L350.606 82.7552L340.339 122.958L300.003 109.29L331.938 5.41671L374.407 52.6198L409.943 6.21676L448.479 107.557Z" fill="url(#paint3_linear_4815_5980)"/>
<path d="M537.085 5.81674L536.285 37.6855L497.016 36.0854L496.149 50.0197L519.884 49.1529L517.484 78.6216L494.549 77.8215L493.549 90.889L537.885 91.7558L535.485 122.825L456.08 118.758L460.147 6.61679L537.085 5.81674Z" fill="url(#paint4_linear_4815_5980)"/>
<defs>
<linearGradient id="paint0_linear_4815_5980" x1="6.62036" y1="25.4866" x2="479.734" y2="260.976" gradientUnits="userSpaceOnUse">
<stop stop-color="#2CDA00"/>
<stop offset="0.900337" stop-color="#00D1FF"/>
</linearGradient>
<linearGradient id="paint1_linear_4815_5980" x1="6.62036" y1="25.4866" x2="479.734" y2="260.976" gradientUnits="userSpaceOnUse">
<stop stop-color="#2CDA00"/>
<stop offset="0.900337" stop-color="#00D1FF"/>
</linearGradient>
<linearGradient id="paint2_linear_4815_5980" x1="6.62036" y1="25.4866" x2="479.734" y2="260.976" gradientUnits="userSpaceOnUse">
<stop stop-color="#2CDA00"/>
<stop offset="0.900337" stop-color="#00D1FF"/>
</linearGradient>
<linearGradient id="paint3_linear_4815_5980" x1="6.62036" y1="25.4866" x2="479.734" y2="260.976" gradientUnits="userSpaceOnUse">
<stop stop-color="#2CDA00"/>
<stop offset="0.900337" stop-color="#00D1FF"/>
</linearGradient>
<linearGradient id="paint4_linear_4815_5980" x1="6.62036" y1="25.4866" x2="479.734" y2="260.976" gradientUnits="userSpaceOnUse">
<stop stop-color="#2CDA00"/>
<stop offset="0.900337" stop-color="#00D1FF"/>
</linearGradient>
</defs>
</svg>
