<svg width="162" height="71" viewBox="0 0 162 71" fill="none" xmlns="http://www.w3.org/2000/svg">
<path d="M6.48256 13.0009L23.5212 15.08L18.8519 46.0173L33.8501 48.1217L32.0258 62.5721L0.39917 59.4248L6.48256 13.0009Z" fill="url(#paint0_linear_0_12)"/>
<path d="M46.1684 36.6018L52.5634 36.6393L50.2391 43.709L46.1684 36.6018ZM58.5471 18.6793L56.0336 26.2006L40.2974 26.3779L36.132 19.085L24.2611 27.3985L52.8318 70.9159L74.8625 23.4564L58.5471 18.6793Z" fill="url(#paint1_linear_0_12)"/>
<path d="M124.997 65.2076L108.281 69.7203L104.509 53.874L95.0956 63.3221L86.481 49.8764L80.1511 65.6932L64.4618 57.972L83.018 17.3945L97.7821 38.8818L114.73 21.8923L124.997 65.2076Z" fill="url(#paint2_linear_0_12)"/>
<path d="M149.398 9.26004L152.528 21.9694L136.801 25.5824L137.964 31.1953L147.272 28.2852L149.508 40.2169L140.337 42.3803L141.354 47.6643L159.009 43.2128L161.418 55.7783L129.527 62.7548L119.011 17.8975L149.398 9.26004Z" fill="url(#paint3_linear_0_12)"/>
<path d="M66.5529 0.801707L66.2794 8.72399C66.1351 9.98487 65.6794 11.0407 64.9122 11.8914C64.297 12.575 63.4994 13.1143 62.5196 13.5017C61.3954 13.9498 60.294 14.1625 59.2231 14.1549L58.6078 10.509C60.089 10.2279 61.0992 9.60508 61.6385 8.64043C61.9043 8.16191 62.0259 7.70617 62.0031 7.28841L62.0714 0.946025L66.5529 0.801707Z" fill="url(#paint4_linear_0_12)"/>
<path d="M67.8441 0.133289L72.1585 1.18149C71.9914 1.64483 71.8319 2.17652 71.6799 2.77658C71.5052 3.46019 71.3761 4.12101 71.285 4.75145C71.0495 6.38452 71.1331 7.56944 71.528 8.29103C71.6496 8.51131 71.7559 8.67082 71.8395 8.75437C72.0901 9.00503 72.3863 9.17973 72.7281 9.27847C73.0851 9.37721 73.4194 9.3924 73.7384 9.31645C73.9359 9.27087 74.1182 9.18732 74.2853 9.06579C74.4979 8.90628 74.6726 8.6936 74.8094 8.42776C75.174 7.72136 75.2423 6.69594 75.0144 5.33632C74.9157 4.68309 74.7258 3.95391 74.4524 3.14877C74.3536 2.83735 74.2245 2.48035 74.0726 2.07778L73.8751 1.56127L73.6776 1.02958L78.2274 0.611816C79.8605 5.41987 79.8833 9.03541 78.3034 11.4584C77.5286 12.6433 76.4652 13.4333 75.1208 13.8207C74.665 13.9498 74.1941 14.0258 73.7156 14.0561C73.5409 14.0637 73.3738 14.0637 73.2067 14.0561C73.1459 14.0485 73.0851 14.0485 73.0244 14.0485C72.9788 14.0485 72.9332 14.0485 72.8953 14.041C71.5812 13.9194 70.4646 13.5169 69.5304 12.8256C68.824 12.3015 68.2467 11.6255 67.7986 10.8128C66.9858 9.30126 66.6668 7.37196 66.8567 5.00971C66.9327 4.1362 67.077 3.21713 67.2821 2.25248C67.4416 1.53849 67.6239 0.83209 67.8441 0.133289ZM75.4094 13.9042L75.3562 13.9118L75.3866 13.9042H75.4094ZM76.1538 13.1599L76.1006 13.1674C76.131 13.1599 76.1462 13.1599 76.1538 13.1599Z" fill="url(#paint5_linear_0_12)"/>
<path d="M85.8611 0.0953103C86.5067 0.140884 87.1827 0.285202 87.8891 0.528263L86.8865 3.4374C85.8459 3.08041 85.1623 3.13358 84.8508 3.58172C84.4331 4.16659 84.7901 4.8502 85.9066 5.64015C86.2712 5.90599 86.7801 6.21742 87.4409 6.58201L87.6308 6.68835L87.798 6.7795C87.9423 6.85545 88.0486 6.91622 88.1246 6.9542C88.3448 7.08332 88.5043 7.18207 88.6031 7.25043C89.3247 7.75934 89.788 8.40497 89.9931 9.19492C90.1906 9.96208 90.1222 10.7292 89.7804 11.504C89.4234 12.3015 88.9525 12.9168 88.3524 13.3573C87.6764 13.8511 86.8105 14.1473 85.7547 14.246C85.1774 14.2992 84.4786 14.2308 83.6583 14.041C83.0051 13.8966 82.2911 13.6764 81.5239 13.3801L83.157 10.4938C83.7267 10.8584 84.2128 11.0179 84.6306 10.9723C85.0635 10.9343 85.2382 10.6761 85.1471 10.2051C85.0863 9.90891 84.9268 9.62787 84.6609 9.37721C84.4407 9.16453 84.0685 8.92147 83.5444 8.64803L83.195 8.47333L82.8456 8.29103C82.5645 8.14672 82.3215 8.01759 82.1316 7.90365C80.9391 7.20485 80.2099 6.32376 79.944 5.26036C79.7162 4.3261 79.8225 3.4374 80.2555 2.59428C80.6732 1.78914 81.3188 1.17389 82.1848 0.756133C83.3013 0.216841 84.5318 -0.00343332 85.8611 0.0953103Z" fill="url(#paint6_linear_0_12)"/>
<path d="M88.5651 4.38686L88.4208 0.664985L99.2294 0.125693L99.3661 3.72604L95.6823 3.95391L95.9405 13.3118L91.5882 13.4789L91.5426 4.20457L88.5651 4.38686Z" fill="url(#paint7_linear_0_12)"/>
<defs>
<linearGradient id="paint0_linear_0_12" x1="2.28394" y1="13.1391" x2="166.127" y2="59.2598" gradientUnits="userSpaceOnUse">
<stop stop-color="#2CDA00"/>
<stop offset="0.900337" stop-color="#00D1FF"/>
</linearGradient>
<linearGradient id="paint1_linear_0_12" x1="2.28394" y1="13.1391" x2="166.127" y2="59.2598" gradientUnits="userSpaceOnUse">
<stop stop-color="#2CDA00"/>
<stop offset="0.900337" stop-color="#00D1FF"/>
</linearGradient>
<linearGradient id="paint2_linear_0_12" x1="2.28394" y1="13.1391" x2="166.127" y2="59.2598" gradientUnits="userSpaceOnUse">
<stop stop-color="#2CDA00"/>
<stop offset="0.900337" stop-color="#00D1FF"/>
</linearGradient>
<linearGradient id="paint3_linear_0_12" x1="2.28394" y1="13.1391" x2="166.127" y2="59.2598" gradientUnits="userSpaceOnUse">
<stop stop-color="#2CDA00"/>
<stop offset="0.900337" stop-color="#00D1FF"/>
</linearGradient>
<linearGradient id="paint4_linear_0_12" x1="2.28394" y1="13.1391" x2="166.127" y2="59.2598" gradientUnits="userSpaceOnUse">
<stop stop-color="#2CDA00"/>
<stop offset="0.900337" stop-color="#00D1FF"/>
</linearGradient>
<linearGradient id="paint5_linear_0_12" x1="2.28394" y1="13.1391" x2="166.127" y2="59.2598" gradientUnits="userSpaceOnUse">
<stop stop-color="#2CDA00"/>
<stop offset="0.900337" stop-color="#00D1FF"/>
</linearGradient>
<linearGradient id="paint6_linear_0_12" x1="2.28394" y1="13.1391" x2="166.127" y2="59.2598" gradientUnits="userSpaceOnUse">
<stop stop-color="#2CDA00"/>
<stop offset="0.900337" stop-color="#00D1FF"/>
</linearGradient>
<linearGradient id="paint7_linear_0_12" x1="2.28394" y1="13.1391" x2="166.127" y2="59.2598" gradientUnits="userSpaceOnUse">
<stop stop-color="#2CDA00"/>
<stop offset="0.900337" stop-color="#00D1FF"/>
</linearGradient>
</defs>
</svg>
